<svg viewBox="0 0 121 76" xmlns="http://www.w3.org/2000/svg"><path d="M51.341.002a3.34 3.34 0 00-.635.084c-1.639.396-3.267 2.114-1.381 4.027 1.596 1.618 2.888 5.74 3.728 9.091-5.178 3.42-7.678 10.615-4.196 21.223 4.968 15.157-9.485 23.511-19.877 26.547C19.09 63.63 7.705 58.06 0 52.494 5.073 69.44 22.688 79.378 39.835 74.767c9.043-2.435 16.175-8.438 20.307-16.096 2.805 8.59 26.154 15.363 37.561 12.296 11.68-3.142 21.638-7.453 23.297-16.929-.494.148-.982.295-1.481.432-18.407 9.097-34.887 7.089-40.234-.174.042.006.09.01.131.01 11.407.696 41.41-5.185 31.212-23.353-6.497 11.484-33.37 14.794-37.33-.026-2.7-10.103-8.713-17.57-14.552-18.778-1.172-5.73-5.131-9.866-5.961-11.426-.273-.517-.83-.733-1.45-.723l.006.002z" fill="#F8E71C" fill-rule="nonzero"/></svg>