<?xml version="1.0" encoding="UTF-8"?>
<svg width="170px" height="280px" viewBox="0 0 170 280" version="1.1" xmlns="http://www.w3.org/2000/svg"
     xmlns:xlink="http://www.w3.org/1999/xlink">
    <!-- Generator: Sketch 59.1 (86144) - https://sketch.com -->
    <title>human</title>
    <desc>Created with Sketch.</desc>
    <g id="v2" stroke="none" stroke-width="1" fill="none" fill-rule="evenodd">
        <g id="human" transform="translate(-1.000000, -14.000000)">
            <g id="Head/Front/Pony" transform="translate(42.565704, 0.645988)">
                <g id="Head" stroke-width="1" transform="translate(36.926471, 21.163462)" fill="#B28B67">
                    <path d="M26.0833143,6.23566574 C30.0459423,13.6095085 29.575079,32.3138722 24.4537355,33.6317835 C22.4111961,34.1574046 18.0598049,32.8697062 13.6312702,30.2046418 L16.4117647,49.8365385 L0,49.8365385 L5.6489321,23.5449662 C2.49848679,19.8526692 0.366317571,15.3278673 0.722648523,10.2577618 C1.7494464,-4.35217751 22.1206864,-1.13817701 26.0833143,6.23566574 Z"></path>
                </g>
                <path d="M58.125,13.6538462 C61.9016531,13.6538462 64.9632353,16.7103637 64.9632353,20.4807692 C64.9632353,24.1264385 62.1008747,27.1046736 58.4973959,27.2977412 C56.4348109,27.9328291 53.7844039,28.399452 50.8450247,28.5961109 C51.1316159,29.6658523 51.2867647,30.8828922 51.2867647,32.2582781 C51.2867647,33.4722399 51.1525491,34.759715 50.905413,36.0669681 C50.2684928,35.3108701 49.4163635,34.8173077 48.5514706,34.8173077 C46.1323996,34.8173077 44.4485294,36.8040441 44.4485294,38.9134615 C44.4485294,41.5906485 45.9966367,43.5273958 48.2565677,43.6822927 C46.2220292,47.5816444 43.4070313,50.5192308 40.5947313,50.5192308 C35.2535802,50.5192308 31.4558824,43.3900658 31.4558824,35.724994 C31.4558824,35.4555983 31.4612307,35.1879952 31.4717834,34.9223916 C25.8222249,38.7926147 21.4677889,46.4230769 13.9915392,46.4230769 C3.82067876,46.4230769 -0.218593936,25.9423077 13.9915392,25.9423077 C23.6562194,25.9423077 28.4098571,27.349189 32.5067785,29.4295808 C33.3135794,27.155918 34.5449026,25.2446775 36.0505453,23.9095867 C36.4155309,23.4986613 36.9794914,23.1042359 37.7083337,22.7390519 C38.1361767,22.5060831 38.5785694,22.3162803 39.0329617,22.172341 C41.5042528,21.2640873 45.0880777,20.6228568 49.0921035,20.4832644 C49.8386559,20.4572374 50.5718571,20.4496239 51.2871225,20.4592233 C51.2982154,16.6989451 54.355408,13.6538462 58.125,13.6538462 Z"
                      id="hair" fill="#191847"></path>
            </g>
            <g id="lower_body" transform="translate(0.629515, 129.723973)">
                <g id="right_leg" transform="translate(73.183172, 0.000000)">
                    <polygon id="Leg" fill="#1F28CF"
                             points="3.26849658e-13 5.68434189e-14 32.944804 87.3021469 56.0366862 151.648536 69.2036553 151.648536 37.4615747 1.24188897e-13"></polygon>
                    <g id="Accessories/Shoe/Flat-Pointy" transform="translate(54.814776, 136.552301)" fill="#191847">
                        <path d="M0,27 L0.68852459,12.825 L15.147541,12.825 C22.0035957,17.55 30.9544154,21.375 42,24.3 L42,27 L15.8360656,27 L6.8852459,25.65 L6.8852459,27 L0,27 Z"
                              id="Shoe"></path>
                    </g>
                </g>
                <g id="left_leg" transform="translate(0.117979, 0.000000)">
                    <path d="M64.9228882,0 C64.5647768,29.9551756 64.8236767,70.2849574 63.9892848,72.1522107 C63.4330235,73.3970461 46.1311799,87.5803262 12.0837541,114.702051 L18.8704951,126.259414 C59.2926245,100.153768 80.5369949,85.3618897 82.6036062,81.8837779 C85.7035231,76.6666102 101.277262,28.6575501 109.379982,0 L64.9228882,0 Z"
                          id="Leg" fill="#2B44FF"></path>
                    <g id="Accessories/Shoe/Flat-Pointy"
                       transform="translate(24.074486, 129.690377) rotate(50.000000) translate(-24.074486, -129.690377) translate(3.176353, 115.966527)"
                       fill="#191847">
                        <path d="M0,27 L0.68852459,12.825 L15.147541,12.825 C22.0035957,17.55 30.9544154,21.375 42,24.3 L42,27 L15.8360656,27 L6.8852459,25.65 L6.8852459,27 L0,27 Z"
                              id="Shoe"></path>
                    </g>
                </g>
            </g>
            <g id="upper_body" transform="translate(0.163513, 49.736767)">
                <g id="right_arm" transform="translate(81.961871, 7.756685)">
                    <path d="M49.7568884,60.7622293 L70.8482596,78.0004732 C76.7135526,79.9154322 81.5794169,82.170719 85.4458526,84.7663336 C86.3437168,85.6739279 87.3920879,87.4716646 83.4973806,86.9666381 C79.6026734,86.4616117 75.4832813,86.1053675 74.8737847,87.40947 C74.2642882,88.7135725 76.5470692,90.4307402 75.3620146,92.1713364 C74.5719781,93.3317338 71.2944138,90.1468947 65.5293215,82.616819 L44.2793063,72.4822777 L49.7568884,60.7622293 Z"
                          id="right_hand" fill="#B28B67"
                          transform="translate(65.282278, 76.582990) rotate(1.000000) translate(-65.282278, -76.582990) "></path>
                    <path d="M3.6396766,5.88002097 L10.9509621,2.73428187 C23.3935283,27.3254396 40.7822178,50.6505935 68.0529006,69.2515874 L62.7086349,80.6473639 C39.1916216,69.4437558 17.1254065,61.0728565 6.80648866,42.0768485 C3.34319309,35.7012971 4.09775116,13.8255006 3.6396766,5.88002097 Z"
                          id="right_coat" fill="#69A1AC"
                          transform="translate(35.846289, 41.690823) rotate(5.000000) translate(-35.846289, -41.690823) "></path>
                </g>
                <path d="M62.8874452,82.9638803 C84.5367129,85.2567783 101.577061,85.2567783 114.00849,82.9638803 C115.548661,82.6798056 115.791643,80.1039864 115.077391,78.3558196 C103.954624,51.1323127 96.3273608,27.3782724 96.3273608,8.46943775 C94.2864731,9.49721841 90.7147272,9.65124419 85.6121231,8.93151508 C71.8989518,28.4176772 65.5954954,50.7758188 62.8874452,82.9638803 Z"
                      id="shirt" fill="#323337"></path>
                <path d="M36.2963483,155.606994 L106.402169,155.606994 C93.4456034,120.977324 89.248601,15.1157927 87.9179374,7.29824561 L81.1577988,7.29824561 C67.1389018,39.6453152 38.6937027,105.568081 36.2963483,155.606994 Z"
                      id="main_coat" fill="#89C5CC"></path>
                <g id="left_arm" transform="translate(0.097536, 0.126600)">
                    <path d="M39.8843115,61.3251674 C28.1404918,87.2899197 21.3269833,101.4659 19.4437859,103.853108 C18.0628174,105.603674 9.65706538,110.027732 3.97892256,112.369583 C1.69979303,113.30957 2.15225217,115.228021 2.80508615,115.850683 C8.11509166,120.915271 13.0861852,117.316003 18.8985236,115.981388 C25.2664396,114.519203 23.1594085,122.019528 28.1900678,120.941938 C27.4513086,117.484512 25.4029812,110.90773 27.7823544,107.380412 C28.8398536,105.812715 36.8883951,91.3329146 51.9279789,63.9410116 L39.8843115,61.3251674 Z"
                          id="left_hand" fill="#B28B67"
                          transform="translate(27.101608, 91.186731) rotate(-4.000000) translate(-27.101608, -91.186731) "></path>
                    <path d="M75.4254427,2.99848605 C47.3801297,26.150408 31.4212636,58.8738268 27.5488442,101.168743 L41.0212491,102.631513 C48.112747,66.5272823 59.4975628,37.3746111 75.1756965,15.1734997 L75.4254427,2.99848605 Z"
                          id="left_coat" fill="#69A1AC"
                          transform="translate(51.487143, 52.815000) rotate(8.000000) translate(-51.487143, -52.815000) "></path>
                </g>
            </g>
        </g>
    </g>
</svg>